<svg width="0" height="0" class="hidden">
  <symbol fill="none" xmlns="http://www.w3.org/2000/svg" viewBox="0 0 134 134" id="medication1">
    <circle cx="67" cy="67" r="67" fill="#590D56"></circle>
    <path d="M78.3316 12.8426L78.49 12.9439L78.6759 12.9158L91.9762 10.9024L99.3797 22.1337L99.4832 22.2907L99.6645 22.3406L112.634 25.9111L114.829 39.1826L114.86 39.3681L115.005 39.4875L125.401 48.0244L122.008 61.0414L121.961 61.2234L122.045 61.3915L128.07 73.4187L119.676 83.9305L119.559 84.0774L119.567 84.2653L120.18 97.7032L108.236 103.892L108.069 103.979L108 104.154L103.094 116.679L89.6655 117.475L89.4778 117.486L89.3439 117.618L79.7671 127.065L67.176 122.33L67 122.264L66.824 122.33L54.2329 127.065L44.6561 117.618L44.5222 117.486L44.3345 117.475L30.9062 116.679L25.9996 104.154L25.9311 103.979L25.7641 103.892L13.8205 97.7032L14.4325 84.2653L14.4411 84.0774L14.3238 83.9305L5.92995 73.4187L11.9548 61.3915L12.039 61.2234L11.9916 61.0414L8.599 48.0244L18.9949 39.4875L19.1402 39.3681L19.1709 39.1826L21.3661 25.9111L34.3355 22.3406L34.5168 22.2907L34.6203 22.1337L42.0237 10.9024L55.3241 12.9158L55.51 12.9439L55.6684 12.8426L67 5.59356L78.3316 12.8426Z" stroke="white"></path>
  </symbol>
  <symbol fill="none" xmlns="http://www.w3.org/2000/svg" viewBox="0 0 134 134" id="medication2">
    <path d="M134 67C134 104.003 104.003 134 67 134C29.9969 134 0 104.003 0 67C0 29.9969 29.9969 0 67 0C104.003 0 134 29.9969 134 67Z" fill="#590D56"></path>
    <path d="M90.5 67C90.5 79.9787 79.9787 90.5 67 90.5C54.0213 90.5 43.5 79.9787 43.5 67C43.5 54.0213 54.0213 43.5 67 43.5C79.9787 43.5 90.5 54.0213 90.5 67Z" stroke="white"></path>
    <path d="M71.5 67C71.5 69.4853 69.4853 71.5 67 71.5C64.5147 71.5 62.5 69.4853 62.5 67C62.5 64.5147 64.5147 62.5 67 62.5C69.4853 62.5 71.5 64.5147 71.5 67Z" stroke="white"></path>
  </symbol>
  <symbol fill="none" xmlns="http://www.w3.org/2000/svg" viewBox="0 0 134 134" id="medication3">
    <path fill-rule="evenodd" clip-rule="evenodd" d="M134 67C134 104.003 104.003 134 67 134C65.616 134 64.2419 133.958 62.8787 133.875C83.0693 123.458 109.26 102.873 121.117 69.4138C121.15 69.3195 121.184 69.2254 121.217 69.1314C125.526 67.4809 129.779 65.6728 133.917 63.6297C133.972 64.7461 134 65.8698 134 67ZM133.854 62.5443C133.417 55.8869 132.008 49.4949 129.766 43.5092C127.592 50.5328 124.92 58.6221 121.655 67.8905C125.802 66.2803 129.886 64.5213 133.854 62.5443ZM120.429 68.3619C124.01 58.2262 126.887 49.4898 129.183 42.0068C119.277 17.3829 95.1683 0 67 0C29.9969 0 0 29.9969 0 67C0 89.8859 11.4746 110.092 28.9844 122.178C34.0864 112.325 44.8687 98.2202 63.4401 88.6163C70.9585 84.7283 79.4186 81.7231 88.2511 78.8937C91.1959 77.9504 94.1799 77.0272 97.1853 76.0975L97.1863 76.0972C103.21 74.2337 109.319 72.3438 115.37 70.2118C117.063 69.6152 118.751 69.0001 120.429 68.3619ZM119.99 69.5968C118.565 70.1316 117.135 70.65 115.702 71.155C109.634 73.2931 103.491 75.1935 97.4563 77.0605C94.4554 77.9889 91.4812 78.9091 88.5562 79.8461C79.7347 82.6719 71.3403 85.6566 63.8994 89.5046C45.4536 99.0435 34.8047 113.064 29.8174 122.744C38.8802 128.801 49.5029 132.707 60.9554 133.731C81.0441 123.709 107.859 103.268 119.99 69.5968Z" fill="#590D56"></path>
  </symbol>
</svg>