<svg width="134" height="134" viewBox="0 0 134 134" fill="none" xmlns="http://www.w3.org/2000/svg">
<path fill-rule="evenodd" clip-rule="evenodd" d="M134 67C134 104.003 104.003 134 67 134C65.616 134 64.2419 133.958 62.8787 133.875C83.0693 123.458 109.26 102.873 121.117 69.4138C121.15 69.3195 121.184 69.2254 121.217 69.1314C125.526 67.4809 129.779 65.6728 133.917 63.6297C133.972 64.7461 134 65.8698 134 67ZM133.854 62.5443C133.417 55.8869 132.008 49.4949 129.766 43.5092C127.592 50.5328 124.92 58.6221 121.655 67.8905C125.802 66.2803 129.886 64.5213 133.854 62.5443ZM120.429 68.3619C124.01 58.2262 126.887 49.4898 129.183 42.0068C119.277 17.3829 95.1683 0 67 0C29.9969 0 0 29.9969 0 67C0 89.8859 11.4746 110.092 28.9844 122.178C34.0864 112.325 44.8687 98.2202 63.4401 88.6163C70.9585 84.7283 79.4186 81.7231 88.2511 78.8937C91.1959 77.9504 94.1799 77.0272 97.1853 76.0975L97.1863 76.0972C103.21 74.2337 109.319 72.3438 115.37 70.2118C117.063 69.6152 118.751 69.0001 120.429 68.3619ZM119.99 69.5968C118.565 70.1316 117.135 70.65 115.702 71.155C109.634 73.2931 103.491 75.1935 97.4563 77.0605C94.4554 77.9889 91.4812 78.9091 88.5562 79.8461C79.7347 82.6719 71.3403 85.6566 63.8994 89.5046C45.4536 99.0435 34.8047 113.064 29.8174 122.744C38.8802 128.801 49.5029 132.707 60.9554 133.731C81.0441 123.709 107.859 103.268 119.99 69.5968Z" fill="#590D56"/>
</svg>
